<?xml version="1.0" encoding="utf-8"?>
<!-- Generator: Adobe Illustrator 16.0.4, SVG Export Plug-In . SVG Version: 6.00 Build 0)  -->
<!DOCTYPE svg PUBLIC "-//W3C//DTD SVG 1.1//EN" "http://www.w3.org/Graphics/SVG/1.1/DTD/svg11.dtd">
<svg version="1.1" id="Layer_1" xmlns="http://www.w3.org/2000/svg" xmlns:xlink="http://www.w3.org/1999/xlink" x="0px" y="0px"
	 width="210px" height="210px" viewBox="0 0 210 210" enable-background="new 0 0 210 210" xml:space="preserve">
<path fill-rule="evenodd" clip-rule="evenodd" fill="#C62127" d="M95.28,8.472c6.489,0,12.979,0,19.469,0
	c9.185,2.337,18.876,3.08,27.039,6.49c24.04,10.039,43.097,26.614,53.537,50.291c5.42,12.292,12.98,33.152,8.111,51.915
	c0,1.262,0,2.524,0,3.786c-2.361,9.045-4.521,17.579-8.111,25.416c-9.946,21.708-31.041,39.348-53.537,48.67
	c-8.177,3.387-17.78,4.237-27.039,6.488c-4.146,0-8.292,0-12.438,0c-13.837-0.002-25.37-3.397-35.151-7.57
	c-22.518-9.609-35.832-21.34-48.128-41.1c-1.205-1.936-3.377-4.406-4.326-6.488c-2.146-4.701-2.976-8.961-4.867-14.061
	c-3.833-10.336-6.797-29.589-3.244-43.262c1.541-5.932,2.566-12.312,4.867-17.845c10.474-25.206,29.203-44.37,54.077-55.159
	c6.2-2.69,13.275-4.082,20.008-5.949C88.66,9.23,93.005,10.158,95.28,8.472z M118.535,16.583
	c35.129,8.882,55.525,23.28,68.678,54.077c4.099,9.598,10.014,27.886,6.489,42.722c0,1.622,0,3.245,0,4.867
	c-1.995,7.922-3.491,15.676-6.489,22.712c-9.985,23.433-29.172,38.915-52.997,48.67c-6.224,2.549-13.619,2.663-20.55,4.326
	c-2.703,0-5.407,0-8.111,0c-13.608,0-23.677-2.625-32.987-6.49c-4.36-1.81-8.113-2.519-11.896-4.866
	c-15.731-9.766-29.699-23.864-37.313-41.64c-1.599-3.732-1.907-6.812-3.245-10.815c-2.696-8.072-6.105-27.02-3.244-38.396
	c1.255-4.99,1.839-10.898,3.786-15.682c9.763-23.991,25.277-42.767,48.668-52.996c5.588-1.802,11.178-3.605,16.765-5.407
	c2.96-0.829,8.679-0.162,10.815-1.622C104.113,16.223,111.325,16.402,118.535,16.583z M94.74,80.936
	c-0.717,5.021-3.818,5.309-2.704,11.356c0.541,0,1.082,0,1.623,0c0.643-0.492,0.893-0.441,2.163-0.542c0,2.163,0,4.327,0,6.49
	c1.87,0.28,4.121,0.617,4.867,2.163c-5.173,4.836-4.615,9.91-15.143,9.734c-1.638-1.244-5.535-1.562-8.111-1.621
	c0,0.179,0,0.359,0,0.54c1.416,1.708,1.286,4.156,2.163,6.489c1.392,3.702,3.131,8.076,4.867,11.355c0,0.542,0,1.082,0,1.623
	c0.54,0.36,1.081,0.721,1.622,1.082c1.265,1.931,2.021,3.678,3.245,5.407c0,0.36,0,0.721,0,1.081
	c0.721,0.181,1.441,0.361,2.163,0.542c2.144,1.204,4.764,2.39,7.029,3.784c1.67,1.029,3.301,3.45,4.867,4.326
	c5.825,3.259,18.965,3.834,28.12,3.786c0-1.803,0-3.605,0-5.408c-5.768-0.18-11.537-0.36-17.304-0.541
	c-1.677-0.713-2.812-3.627-4.327-4.326c-2.163,0-4.326,0-6.489,0c-0.125-2.576-1.379-7.273-0.54-8.651
	c0.645-1.542,1.834-1.909,2.703-3.245c-0.181,0-0.36,0-0.54,0c-2.345,1.669-14.743,1.653-18.928,1.622c0-0.181,0-0.36,0-0.54
	c0.18,0,0.36,0,0.541,0c5.787-4.223,22.541-0.979,24.875-8.112c-3.451-0.48-12.76-2.485-10.274-6.489
	c2.729-2.534,8.524-1.88,11.356-4.325c-4.52-2.535-11.372-8.339-12.979-13.52c0.542,0,1.083,0,1.623,0
	c0.88,0.668,2.675,0.582,4.326,0.54c1.914,3.913,5.887,6.297,8.111,9.733c0.542,1.804,1.082,3.606,1.623,5.409
	c1.105-0.398,2.527-0.543,4.326-0.541c0.181,1.982,0.359,3.967,0.54,5.949c2.385-0.253,5.071-0.539,8.112-0.541
	c2.411,3.252,7.565,4.004,9.733,7.571c1.001,1.646,0.002,5.476,1.082,7.029c1.635,1.854,3.59,3.162,6.49,3.785
	c0-1.081,0-2.163,0-3.244c0.721-0.951,0.591-3.117,0.54-4.867c-1.261-1.082-2.523-2.163-3.784-3.244c1.441,0,2.884,0,4.326,0
	c3.413,7.252,10.014,13.165,11.355,22.171c-2.521,1.667-5.657,5.89-7.03,8.653c0.181,0,0.361,0,0.541,0
	c1.471-2.407,5.258-6.67,8.111-7.572c0,2.163,0,4.327,0,6.49c-3.244,3.604-6.489,7.211-9.733,10.815
	c-1.911,1.31-3.95,1.47-5.949,2.704c-1.829,1.129-4.022,3.414-5.949,4.326c-0.721,0-1.441,0-2.163,0
	c-1.101,0.43-3.091,1.776-4.326,2.163c-2.163,0.181-4.326,0.36-6.489,0.54c-20.174,5.179-39.616-4.303-47.588-16.223
	c-6.471-9.675-1.911-21.844-3.245-35.15c-3.848-1.163-4.065-4.095-6.488-5.948c-0.858-0.656-1.843-0.429-2.704-1.082
	c-1.32-1-2.733-3.951-3.785-5.407c-0.722-0.54-1.442-1.082-2.164-1.623c0-4.867,0-9.734,0-14.602c1.633-2.389-0.86-5.751,0-9.192
	c0.78-3.114,3.532-16.625,2.704-20.01c-1.232-5.032-3.8-20.857-2.704-25.416c4.687,2.524,9.375,5.048,14.061,7.571
	c0-0.36,0-0.721,0-1.082c-1.466-1.455-2.703-4.814-3.244-7.03c0.18,0,0.36,0,0.54,0c2.613,2.034,9.824,1.321,11.356,4.327
	c-2.232,0.05-5.674,0.501-7.029,1.622c-0.528,0.691-0.504,1.334-0.542,2.704c2.695,1.861,3.118,5.859,5.408,8.111
	c-1.618,6.611-7.699,13.608-5.948,21.09c0.907,3.876-0.847,8.623,1.082,11.356c0.801-8.224,5.19-15.541,7.029-23.254
	c-0.181,0-0.36,0-0.54,0c0,0.181,0,0.361,0,0.542c-0.958,0.939-1.571,2.509-2.163,3.785c-0.181,0-0.361,0-0.542,0
	c0-0.36,0-0.722,0-1.081c3.022-3.075,5.139-8.98,7.03-12.979c0.181,0,0.361,0,0.541,0c0,0.721,0,1.442,0,2.163
	c-0.653,0.783-4.294,13.215-3.785,14.601c0.347,0.946,2.334,2.186,2.703,3.245c-0.18,4.867-0.359,9.734-0.54,14.601
	c0.181,0,0.36,0,0.54,0c0-0.359,0-0.721,0-1.082C88.785,83.697,86.477,80.745,94.74,80.936z M64.457,74.986
	c-2.117-2.47-2.817-17.782-2.704-22.713C65.539,56.661,64.634,67.439,64.457,74.986z M148.276,156.103
	c-3.034,4.878-22.514,10.344-29.202,9.734c-1.839-0.168-3.755,0.766-4.866,0.54c-1.391-0.282-2.393-1.328-4.327-1.621
	c3.651-2.61,12.469,0.733,17.305-0.542c6.09-1.604,16.676-4.331,20.55-8.111C147.917,156.103,148.096,156.103,148.276,156.103z"/>
</svg>
